# Blender v3.1.2 OBJ File: 'modified6blend1.blend'
# www.blender.org
o MH1_OBJ_07_MH1_OBJ_07.001
v 59.348495 7.727625 -65.417923
v 59.348495 7.727625 -67.783234
v 61.713810 7.727625 -67.783234
v 61.713810 7.727625 -65.417923
v 59.348495 19.948416 -65.417923
v 61.713810 19.948416 -65.417923
v 61.713810 19.948416 -67.783234
v 59.348495 19.948416 -67.783234
v -62.465206 7.727625 -65.417923
v -62.465206 7.727625 -67.783234
v -60.099892 7.727625 -67.783234
v -60.099892 7.727625 -65.417923
v -62.465206 19.948416 -65.417923
v -60.099892 19.948416 -65.417923
v -60.099892 19.948416 -67.783234
v -62.465206 19.948416 -67.783234
v 59.348495 0.631663 57.199036
v 59.348495 0.631674 -12.198376
v 61.713810 0.631674 -12.198376
v 61.713810 0.631663 57.199036
v 59.348495 7.727605 57.199036
v 61.713810 7.727605 57.199036
v 61.713810 7.727616 -12.198374
v 59.348495 7.727616 -12.198374
v 59.348495 7.727605 54.833721
v 61.713810 7.727605 54.833721
v 59.348495 19.948395 57.199039
v 61.713810 19.948395 57.199039
v 61.713810 19.948395 54.833725
v 59.348495 19.948395 54.833725
v 59.348495 7.727611 23.926224
v 59.348495 7.727611 21.560909
v 61.713810 7.727611 21.560909
v 61.713810 7.727611 23.926224
v 59.348495 19.948400 23.926226
v 61.713810 19.948400 23.926226
v 61.713810 19.948400 21.560911
v 59.348495 19.948400 21.560911
v 59.348495 7.727616 -9.833061
v 61.713810 7.727616 -9.833061
v 59.348495 19.948406 -9.833059
v 61.713810 19.948406 -9.833059
v 61.713810 19.948406 -12.198372
v 59.348495 19.948406 -12.198372
v -62.465206 0.631680 -48.278801
v -60.099892 0.631680 -48.278801
vt 1.000000 1.000000
vt 0.000000 0.000000
vt 1.000000 0.000000
vt 1.000000 0.000000
vt 0.000000 1.000000
vt 0.000000 0.000000
vt 1.000000 0.000000
vt 0.000000 1.000000
vt 0.000000 0.000000
vt 1.000000 0.000000
vt 0.000000 1.000000
vt 1.000000 0.000000
vt 0.000000 1.000000
vt 0.000000 0.000000
vt 0.000000 0.000000
vt 1.000000 1.000000
vt 0.000000 0.000000
vt 1.000000 0.000000
vt 1.000000 0.000000
vt 0.000000 1.000000
vt 0.000000 0.000000
vt 0.000000 1.000000
vt 1.000000 0.000000
vt 0.000000 1.000000
vt 1.000000 0.000000
vt 0.000000 1.000000
vt 0.000000 0.000000
vt 0.000000 0.000000
vt 1.000000 1.000000
vt 0.000000 0.000000
vt 1.000000 0.000000
vt 1.000000 0.000000
vt 0.000000 1.000000
vt 0.000000 0.000000
vt 1.000000 0.000000
vt 0.000000 1.000000
vt 0.000000 0.000000
vt 1.000000 0.000000
vt 0.000000 1.000000
vt 1.000000 0.000000
vt 0.000000 1.000000
vt 0.000000 0.000000
vt 0.000000 0.000000
vt 1.000000 1.000000
vt 0.000000 0.000000
vt 1.000000 0.000000
vt 1.000000 0.000000
vt 0.000000 1.000000
vt 0.000000 0.000000
vt 1.000000 0.000000
vt 0.000000 1.000000
vt 0.000000 0.000000
vt 1.000000 0.000000
vt 0.000000 1.000000
vt 1.000000 0.000000
vt 0.000000 1.000000
vt 0.000000 0.000000
vt 0.000000 0.000000
vt 0.000000 1.000000
vt 1.000000 1.000000
vt 1.000000 1.000000
vt 1.000000 1.000000
vt 0.000000 1.000000
vt 1.000000 1.000000
vt 1.000000 1.000000
vt 1.000000 1.000000
vt 1.000000 1.000000
vt 0.000000 1.000000
vt 1.000000 1.000000
vt 1.000000 1.000000
vt 1.000000 1.000000
vt 1.000000 1.000000
vt 1.000000 1.000000
vt 1.000000 1.000000
vt 1.000000 1.000000
vt 1.000000 1.000000
vn 0.0000 -1.0000 -0.0000
vn 0.0000 1.0000 0.0000
vn 0.0000 0.0000 1.0000
vn 1.0000 0.0000 0.0000
vn 0.0000 0.0000 -1.0000
vn -1.0000 -0.0000 0.0000
s off
f 18/1/1 20/2/1 17/3/1
f 22/4/2 24/5/2 21/6/2
f 20/7/3 21/8/3 17/9/3
f 19/10/4 22/11/4 20/2/4
f 18/12/5 23/13/5 19/14/5
f 17/3/6 24/5/6 18/15/6
f 25/16/1 22/17/1 21/18/1
f 28/19/2 30/20/2 27/21/2
f 22/4/3 27/22/3 21/6/3
f 26/23/4 28/24/4 22/17/4
f 25/25/5 29/26/5 26/27/5
f 21/18/6 30/20/6 25/28/6
f 32/29/1 34/30/1 31/31/1
f 36/32/2 38/33/2 35/34/2
f 34/35/3 35/36/3 31/37/3
f 33/38/4 36/39/4 34/30/4
f 32/40/5 37/41/5 33/42/5
f 31/31/6 38/33/6 32/43/6
f 24/44/1 40/45/1 39/46/1
f 42/47/2 44/48/2 41/49/2
f 40/50/3 41/51/3 39/52/3
f 23/53/4 42/54/4 40/45/4
f 24/55/5 43/56/5 23/57/5
f 39/46/6 44/48/6 24/58/6
f 18/1/1 19/59/1 20/2/1
f 22/4/2 23/60/2 24/5/2
f 20/7/3 22/61/3 21/8/3
f 19/10/4 23/60/4 22/11/4
f 18/12/5 24/44/5 23/13/5
f 17/3/6 21/62/6 24/5/6
f 25/16/1 26/63/1 22/17/1
f 28/19/2 29/64/2 30/20/2
f 22/4/3 28/65/3 27/22/3
f 26/23/4 29/64/4 28/24/4
f 25/25/5 30/66/5 29/26/5
f 21/18/6 27/67/6 30/20/6
f 32/29/1 33/68/1 34/30/1
f 36/32/2 37/69/2 38/33/2
f 34/35/3 36/70/3 35/36/3
f 33/38/4 37/69/4 36/39/4
f 32/40/5 38/71/5 37/41/5
f 31/31/6 35/72/6 38/33/6
f 24/44/1 23/13/1 40/45/1
f 42/47/2 43/73/2 44/48/2
f 40/50/3 42/74/3 41/51/3
f 23/53/4 43/73/4 42/54/4
f 24/55/5 44/75/5 43/56/5
f 39/46/6 41/76/6 44/48/6
l 15 16
l 13 16
l 7 8
l 14 15
