# Blender v3.1.2 OBJ File: 'modified6blend1.blend'
# www.blender.org
o MH1_OBJ_10.001_MH1_OBJ_10.002
v 60.702625 58.411873 -46.495422
v 60.702625 87.685120 -46.495422
v 25.407913 87.685120 -46.495422
v 23.628725 89.464310 -46.495422
v 62.481815 89.464310 -46.495422
v 60.702625 58.411873 -43.196651
v 25.407913 87.685120 -43.196648
v 60.702625 87.685120 -43.196648
v 36.740631 89.464310 -46.495422
v 37.318962 87.685120 -46.495422
v 37.318962 58.411873 -43.196651
v 37.318962 87.685120 -43.196648
v 60.702625 86.129868 -46.495422
v 60.702625 86.129868 -43.196648
v 25.407913 86.129868 -43.196648
v 37.318962 86.129868 -43.196648
v 25.407913 86.129868 -20.564672
v 25.407913 58.411877 -20.564671
v 37.318962 58.411877 -20.564671
v 37.318962 86.129868 -20.564672
v 60.702625 79.891266 -46.495426
v 60.702625 79.891266 -43.196651
v 37.318962 79.891266 -43.196651
v 25.407913 79.891266 -20.564671
v 37.318962 79.891266 -20.564671
v 25.407913 86.129868 -31.613773
v 37.318962 58.411877 -31.613773
v 37.318962 86.129868 -31.613773
v 37.318962 79.891266 -31.613773
v 41.098133 79.891266 -20.564671
v 41.098133 58.411877 -20.564671
v 41.098133 79.891266 -31.613773
vt -8.524110 2.083300
vt -13.315320 2.083300
vt -13.559824 2.083300
vt -13.559824 2.083300
vt -23.445896 2.083300
vt -13.559824 2.083300
vt -23.445896 2.083300
vt -23.445896 2.083300
vt -23.445898 2.083300
vt -23.445896 2.083300
vt -8.524110 2.083300
vt -8.524110 2.083300
vt -24.198097 2.083300
vt -23.445896 2.083300
vt -23.445896 2.083300
vt -13.559824 2.083300
vt -8.524110 2.083300
vt -13.559824 2.083300
vt -8.524109 2.083300
vt -13.559824 2.083300
vt -8.524109 2.083300
vt -13.559824 2.083300
vt -13.559824 2.083300
vt -13.559824 2.083300
vt -8.524109 2.083300
vt -23.445896 2.083300
vt -13.559824 2.083300
vt -13.559824 2.083300
vt -13.559824 2.083300
vt -13.559824 2.083300
vt -7.771909 2.083300
vt -13.559824 2.083300
vn 0.0000 0.0000 -1.0000
vn 0.0000 -1.0000 0.0000
vn -1.0000 0.0000 0.0000
s off
f 3/1/1 9/2/1 10/3/1
f 12/4/1 14/5/1 16/6/1
f 2/7/2 12/4/2 10/3/2
f 1/8/3 22/9/3 21/10/3
f 10/3/2 7/11/2 3/1/2
f 7/11/1 16/6/1 15/12/1
f 2/7/1 9/2/1 5/13/1
f 13/14/3 8/15/3 2/7/3
f 16/6/1 22/9/1 23/16/1
f 17/17/1 25/18/1 24/19/1
f 28/20/2 17/17/2 26/21/2
f 29/22/3 20/23/3 28/20/3
f 24/19/1 19/24/1 18/25/1
f 23/16/1 6/26/1 11/27/1
f 21/10/3 14/5/3 13/14/3
f 23/16/3 28/20/3 16/6/3
f 16/6/2 26/21/2 15/12/2
f 23/16/3 27/28/3 29/22/3
f 29/22/2 30/29/2 25/18/2
f 25/18/1 31/30/1 19/24/1
f 3/1/1 4/31/1 9/2/1
f 12/4/1 8/15/1 14/5/1
f 2/7/2 8/15/2 12/4/2
f 1/8/3 6/26/3 22/9/3
f 10/3/2 12/4/2 7/11/2
f 7/11/1 12/4/1 16/6/1
f 2/7/1 10/3/1 9/2/1
f 13/14/3 14/5/3 8/15/3
f 16/6/1 14/5/1 22/9/1
f 17/17/1 20/23/1 25/18/1
f 28/20/2 20/23/2 17/17/2
f 29/22/3 25/18/3 20/23/3
f 24/19/1 25/18/1 19/24/1
f 23/16/1 22/9/1 6/26/1
f 21/10/3 22/9/3 14/5/3
f 23/16/3 29/22/3 28/20/3
f 16/6/2 28/20/2 26/21/2
f 23/16/3 11/27/3 27/28/3
f 29/22/2 32/32/2 30/29/2
f 25/18/1 30/29/1 31/30/1
