# Blender v3.1.2 OBJ File: 'ground.blend'
# www.blender.org
o MH1_OBJ_07_MH1_OBJ_07.001
v 38.323872 1.252470 -58.772556
v 39.862244 1.252470 -58.772556
v 39.862244 1.252465 -26.466770
v 38.323872 1.252465 -26.466770
v 38.323872 5.867577 -26.466770
v 39.862244 5.867577 -26.466770
v 39.862244 5.867582 -58.772556
v 38.323872 5.867582 -58.772556
v 38.323872 5.867578 -28.005140
v 39.862244 5.867578 -28.005140
v 38.323872 13.815826 -26.466768
v 39.862244 13.815826 -26.466768
v 39.862244 13.815826 -28.005138
v 38.323872 13.815826 -28.005138
v 38.323872 5.867582 -57.234184
v 39.862244 5.867582 -57.234184
v 38.323872 13.815831 -57.234180
v 39.862244 13.815831 -57.234180
v 39.862244 13.815831 -58.772552
v 38.323872 13.815831 -58.772552
v 38.323872 5.867580 -41.850464
v 38.323872 5.867580 -43.388836
v 39.862244 5.867580 -43.388836
v 39.862244 5.867580 -41.850464
v 38.323872 13.815828 -41.850460
v 39.862244 13.815828 -41.850460
v 39.862244 13.815829 -43.388832
v 38.323872 13.815829 -43.388832
v -40.902237 5.867580 -41.850464
v -40.902237 5.867580 -43.388836
v -39.363865 5.867580 -43.388836
v -39.363865 5.867580 -41.850464
v -40.902237 13.815828 -41.850460
v -39.363865 13.815828 -41.850460
v -39.363865 13.815829 -43.388832
v -40.902237 13.815829 -43.388832
v 38.323872 1.252455 37.898071
v 38.323872 1.252462 -7.237133
v 39.862244 1.252462 -7.237133
v 39.862244 1.252455 37.898071
v 38.323872 5.867567 37.898071
v 39.862244 5.867567 37.898071
v 39.862244 5.867574 -7.237132
v 38.323872 5.867574 -7.237132
v 38.323872 5.867567 36.359703
v 39.862244 5.867567 36.359703
v 38.323872 13.815816 37.898075
v 39.862244 13.815816 37.898075
v 39.862244 13.815816 36.359707
v 38.323872 13.815816 36.359707
v 38.323872 5.867570 16.257853
v 38.323872 5.867570 14.719482
v 39.862244 5.867570 14.719482
v 39.862244 5.867570 16.257853
v 38.323872 13.815819 16.257854
v 39.862244 13.815819 16.257854
v 39.862244 13.815820 14.719483
v 38.323872 13.815820 14.719483
v 38.323872 5.867574 -5.698762
v 39.862244 5.867574 -5.698762
v 38.323872 13.815823 -5.698761
v 39.862244 13.815823 -5.698761
v 39.862244 13.815823 -7.237131
v 38.323872 13.815823 -7.237131
v -40.902237 1.252466 -30.703390
v -40.902237 1.252470 -58.772556
v -39.363865 1.252470 -58.772556
v -39.363865 1.252466 -30.703390
v -40.902237 5.867578 -30.703390
v -39.363865 5.867578 -30.703390
v -39.363865 5.867582 -58.772556
v -40.902237 5.867582 -58.772556
v -40.902237 5.867578 -32.241760
v -39.363865 5.867578 -32.241760
v -40.902237 13.815826 -30.703388
v -39.363865 13.815826 -30.703388
v -39.363865 13.815827 -32.241756
v -40.902237 13.815827 -32.241756
v -40.902237 5.867582 -57.234184
v -39.363865 5.867582 -57.234184
v -40.902237 13.815831 -57.234180
v -39.363865 13.815831 -57.234180
v -39.363865 13.815831 -58.772552
v -40.902237 13.815831 -58.772552
v 38.323872 1.252470 -57.234184
v -39.363865 1.252470 -57.234184
v 19.671125 5.867582 -57.234184
v 18.132755 5.867582 -57.234184
v 18.132755 5.867582 -58.772556
v 19.671125 5.867582 -58.772556
v 19.671125 13.815831 -57.234180
v 19.671125 13.815831 -58.772552
v 18.132755 13.815831 -58.772552
v 18.132755 13.815831 -57.234180
v 0.249195 5.867582 -57.234184
v -1.289176 5.867582 -57.234184
v -1.289176 5.867582 -58.772556
v 0.249195 5.867582 -58.772556
v 0.249195 13.815831 -57.234180
v 0.249195 13.815831 -58.772552
v -1.289176 13.815831 -58.772552
v -1.289176 13.815831 -57.234180
v -19.172749 5.867582 -57.234184
v -20.711119 5.867582 -57.234184
v -20.711119 5.867582 -58.772556
v -19.172749 5.867582 -58.772556
v -19.172749 13.815831 -57.234180
v -19.172749 13.815831 -58.772552
v -20.711119 13.815831 -58.772552
v -20.711119 13.815831 -57.234180
vt 0.000000 1.000000
vt 1.000000 0.000000
vt 1.000000 1.000000
vt 1.000000 0.000000
vt 0.000000 1.000000
vt 0.000000 0.000000
vt 1.000000 0.000000
vt 0.000000 1.000000
vt 0.000000 0.000000
vt 1.000000 0.000000
vt 0.000000 1.000000
vt 0.000000 0.000000
vt 1.000000 0.000000
vt 0.000000 1.000000
vt 0.000000 0.000000
vt 0.000000 0.000000
vt 1.000000 1.000000
vt 0.000000 0.000000
vt 1.000000 0.000000
vt 1.000000 0.000000
vt 0.000000 1.000000
vt 0.000000 0.000000
vt 0.000000 1.000000
vt 1.000000 0.000000
vt 0.000000 1.000000
vt 1.000000 0.000000
vt 0.000000 1.000000
vt 0.000000 0.000000
vt 0.000000 0.000000
vt 1.000000 1.000000
vt 0.000000 0.000000
vt 1.000000 0.000000
vt 1.000000 0.000000
vt 0.000000 1.000000
vt 0.000000 0.000000
vt 1.000000 0.000000
vt 0.000000 1.000000
vt 0.000000 0.000000
vt 1.000000 0.000000
vt 0.000000 1.000000
vt 1.000000 0.000000
vt 0.000000 1.000000
vt 0.000000 0.000000
vt 0.000000 0.000000
vt 1.000000 1.000000
vt 0.000000 0.000000
vt 1.000000 0.000000
vt 1.000000 0.000000
vt 0.000000 1.000000
vt 0.000000 0.000000
vt 1.000000 0.000000
vt 0.000000 1.000000
vt 0.000000 0.000000
vt 1.000000 0.000000
vt 0.000000 1.000000
vt 1.000000 0.000000
vt 0.000000 1.000000
vt 0.000000 0.000000
vt 0.000000 0.000000
vt 1.000000 1.000000
vt 0.000000 0.000000
vt 1.000000 0.000000
vt 1.000000 0.000000
vt 0.000000 1.000000
vt 0.000000 0.000000
vt 1.000000 0.000000
vt 0.000000 1.000000
vt 0.000000 0.000000
vt 1.000000 0.000000
vt 0.000000 1.000000
vt 1.000000 0.000000
vt 0.000000 1.000000
vt 0.000000 0.000000
vt 0.000000 0.000000
vt 1.000000 1.000000
vt 0.000000 0.000000
vt 1.000000 0.000000
vt 1.000000 0.000000
vt 0.000000 1.000000
vt 0.000000 0.000000
vt 1.000000 0.000000
vt 0.000000 1.000000
vt 0.000000 0.000000
vt 1.000000 0.000000
vt 0.000000 1.000000
vt 1.000000 0.000000
vt 0.000000 1.000000
vt 0.000000 0.000000
vt 0.000000 0.000000
vt 1.000000 1.000000
vt 0.000000 0.000000
vt 1.000000 0.000000
vt 1.000000 0.000000
vt 0.000000 1.000000
vt 0.000000 0.000000
vt 0.000000 1.000000
vt 1.000000 0.000000
vt 0.000000 1.000000
vt 1.000000 0.000000
vt 0.000000 1.000000
vt 0.000000 0.000000
vt 0.000000 0.000000
vt 1.000000 1.000000
vt 0.000000 0.000000
vt 1.000000 0.000000
vt 1.000000 0.000000
vt 0.000000 1.000000
vt 0.000000 0.000000
vt 1.000000 0.000000
vt 0.000000 1.000000
vt 0.000000 0.000000
vt 1.000000 0.000000
vt 0.000000 1.000000
vt 1.000000 0.000000
vt 0.000000 1.000000
vt 0.000000 0.000000
vt 0.000000 0.000000
vt 1.000000 1.000000
vt 0.000000 0.000000
vt 1.000000 0.000000
vt 1.000000 0.000000
vt 0.000000 1.000000
vt 0.000000 0.000000
vt 1.000000 0.000000
vt 0.000000 1.000000
vt 0.000000 0.000000
vt 1.000000 0.000000
vt 0.000000 1.000000
vt 1.000000 0.000000
vt 0.000000 1.000000
vt 0.000000 0.000000
vt 0.000000 0.000000
vt 1.000000 1.000000
vt 0.000000 0.000000
vt 1.000000 0.000000
vt 1.000000 0.000000
vt 0.000000 1.000000
vt 0.000000 0.000000
vt 1.000000 0.000000
vt 0.000000 1.000000
vt 0.000000 0.000000
vt 1.000000 0.000000
vt 0.000000 1.000000
vt 1.000000 0.000000
vt 0.000000 1.000000
vt 0.000000 0.000000
vt 0.000000 0.000000
vt 1.000000 1.000000
vt 0.000000 0.000000
vt 1.000000 0.000000
vt 1.000000 0.000000
vt 0.000000 1.000000
vt 0.000000 0.000000
vt 0.000000 1.000000
vt 1.000000 0.000000
vt 0.000000 1.000000
vt 1.000000 0.000000
vt 0.000000 1.000000
vt 0.000000 0.000000
vt 0.000000 0.000000
vt 1.000000 1.000000
vt 0.000000 0.000000
vt 1.000000 0.000000
vt 1.000000 0.000000
vt 0.000000 1.000000
vt 0.000000 0.000000
vt 1.000000 0.000000
vt 0.000000 1.000000
vt 0.000000 0.000000
vt 1.000000 0.000000
vt 0.000000 1.000000
vt 1.000000 0.000000
vt 0.000000 1.000000
vt 0.000000 0.000000
vt 0.000000 0.000000
vt 1.000000 1.000000
vt 1.000000 0.000000
vt 0.000000 1.000000
vt 0.000000 1.000000
vt 0.000000 0.000000
vt 1.000000 0.000000
vt 0.000000 0.000000
vt 1.000000 1.000000
vt 0.000000 0.000000
vt 1.000000 0.000000
vt 1.000000 0.000000
vt 0.000000 1.000000
vt 0.000000 0.000000
vt 1.000000 0.000000
vt 0.000000 1.000000
vt 0.000000 0.000000
vt 1.000000 0.000000
vt 0.000000 1.000000
vt 1.000000 0.000000
vt 0.000000 1.000000
vt 0.000000 0.000000
vt 0.000000 0.000000
vt 1.000000 1.000000
vt 0.000000 0.000000
vt 1.000000 0.000000
vt 1.000000 0.000000
vt 0.000000 1.000000
vt 0.000000 0.000000
vt 1.000000 0.000000
vt 0.000000 1.000000
vt 0.000000 0.000000
vt 1.000000 0.000000
vt 0.000000 1.000000
vt 1.000000 0.000000
vt 0.000000 1.000000
vt 0.000000 0.000000
vt 0.000000 0.000000
vt 1.000000 1.000000
vt 0.000000 0.000000
vt 1.000000 0.000000
vt 1.000000 0.000000
vt 0.000000 1.000000
vt 0.000000 0.000000
vt 1.000000 0.000000
vt 0.000000 1.000000
vt 0.000000 0.000000
vt 1.000000 0.000000
vt 0.000000 1.000000
vt 1.000000 0.000000
vt 0.000000 1.000000
vt 0.000000 0.000000
vt 0.000000 0.000000
vt 1.000000 1.000000
vt 1.000000 1.000000
vt 1.000000 1.000000
vt 0.000000 1.000000
vt 1.000000 1.000000
vt 1.000000 1.000000
vt 1.000000 1.000000
vt 1.000000 1.000000
vt 1.000000 1.000000
vt 1.000000 1.000000
vt 1.000000 1.000000
vt 1.000000 1.000000
vt 0.000000 1.000000
vt 1.000000 1.000000
vt 1.000000 1.000000
vt 1.000000 1.000000
vt 1.000000 1.000000
vt 0.000000 1.000000
vt 1.000000 1.000000
vt 1.000000 1.000000
vt 1.000000 1.000000
vt 1.000000 1.000000
vt 0.000000 1.000000
vt 1.000000 1.000000
vt 1.000000 1.000000
vt 1.000000 1.000000
vt 0.000000 1.000000
vt 1.000000 1.000000
vt 1.000000 1.000000
vt 1.000000 1.000000
vt 1.000000 1.000000
vt 0.000000 1.000000
vt 1.000000 1.000000
vt 1.000000 1.000000
vt 1.000000 1.000000
vt 1.000000 1.000000
vt 1.000000 1.000000
vt 1.000000 1.000000
vt 1.000000 1.000000
vt 1.000000 1.000000
vt 0.000000 1.000000
vt 1.000000 1.000000
vt 1.000000 1.000000
vt 1.000000 1.000000
vt 0.000000 1.000000
vt 1.000000 1.000000
vt 1.000000 1.000000
vt 1.000000 1.000000
vt 1.000000 1.000000
vt 1.000000 1.000000
vt 1.000000 1.000000
vt 1.000000 1.000000
vt 1.000000 1.000000
vt 1.000000 1.000000
vt 1.000000 1.000000
vt 0.000000 1.000000
vt 1.000000 1.000000
vt 1.000000 1.000000
vt 1.000000 1.000000
vt 1.000000 1.000000
vt 0.000000 1.000000
vt 1.000000 1.000000
vt 1.000000 1.000000
vt 1.000000 1.000000
vt 1.000000 1.000000
vt 0.000000 1.000000
vt 1.000000 1.000000
vt 1.000000 1.000000
vt 1.000000 1.000000
vt 1.000000 1.000000
vn 0.0000 -1.0000 -0.0000
vn 0.0000 1.0000 0.0000
vn 0.0000 0.0000 1.0000
vn 1.0000 0.0000 0.0000
vn 0.0000 0.0000 -1.0000
vn -1.0000 0.0000 0.0000
s off
f 2/1/1 4/2/1 1/3/1
f 6/4/2 8/5/2 5/6/2
f 3/7/3 5/8/3 4/9/3
f 2/10/4 6/11/4 3/12/4
f 1/13/5 7/14/5 2/15/5
f 4/2/6 8/5/6 1/16/6
f 9/17/1 6/18/1 5/19/1
f 12/20/2 14/21/2 11/22/2
f 6/4/3 11/23/3 5/6/3
f 10/24/4 12/25/4 6/18/4
f 9/26/5 13/27/5 10/28/5
f 5/19/6 14/21/6 9/29/6
f 8/30/1 16/31/1 15/32/1
f 18/33/2 20/34/2 17/35/2
f 16/36/3 17/37/3 15/38/3
f 7/39/4 18/40/4 16/31/4
f 8/41/5 19/42/5 7/43/5
f 15/32/6 20/34/6 8/44/6
f 22/45/1 24/46/1 21/47/1
f 26/48/2 28/49/2 25/50/2
f 24/51/3 25/52/3 21/53/3
f 23/54/4 26/55/4 24/46/4
f 22/56/5 27/57/5 23/58/5
f 21/47/6 28/49/6 22/59/6
f 30/60/1 32/61/1 29/62/1
f 34/63/2 36/64/2 33/65/2
f 32/66/3 33/67/3 29/68/3
f 31/69/4 34/70/4 32/61/4
f 30/71/5 35/72/5 31/73/5
f 29/62/6 36/64/6 30/74/6
f 38/75/1 40/76/1 37/77/1
f 42/78/2 44/79/2 41/80/2
f 40/81/3 41/82/3 37/83/3
f 39/84/4 42/85/4 40/76/4
f 38/86/5 43/87/5 39/88/5
f 37/77/6 44/79/6 38/89/6
f 45/90/1 42/91/1 41/92/1
f 48/93/2 50/94/2 47/95/2
f 42/78/3 47/96/3 41/80/3
f 46/97/4 48/98/4 42/91/4
f 45/99/5 49/100/5 46/101/5
f 41/92/6 50/94/6 45/102/6
f 52/103/1 54/104/1 51/105/1
f 56/106/2 58/107/2 55/108/2
f 54/109/3 55/110/3 51/111/3
f 53/112/4 56/113/4 54/104/4
f 52/114/5 57/115/5 53/116/5
f 51/105/6 58/107/6 52/117/6
f 44/118/1 60/119/1 59/120/1
f 62/121/2 64/122/2 61/123/2
f 60/124/3 61/125/3 59/126/3
f 43/127/4 62/128/4 60/119/4
f 44/129/5 63/130/5 43/131/5
f 59/120/6 64/122/6 44/132/6
f 66/133/1 68/134/1 65/135/1
f 70/136/2 72/137/2 69/138/2
f 68/139/3 69/140/3 65/141/3
f 67/142/4 70/143/4 68/134/4
f 66/144/5 71/145/5 67/146/5
f 65/135/6 72/137/6 66/147/6
f 73/148/1 70/149/1 69/150/1
f 76/151/2 78/152/2 75/153/2
f 70/136/3 75/154/3 69/138/3
f 74/155/4 76/156/4 70/149/4
f 73/157/5 77/158/5 74/159/5
f 69/150/6 78/152/6 73/160/6
f 72/161/1 80/162/1 79/163/1
f 82/164/2 84/165/2 81/166/2
f 80/167/3 81/168/3 79/169/3
f 71/170/4 82/171/4 80/162/4
f 72/172/5 83/173/5 71/174/5
f 79/163/6 84/165/6 72/175/6
f 86/176/1 1/16/1 85/177/1
f 8/41/2 80/178/2 15/38/2
f 1/13/4 15/179/4 85/180/4
f 67/142/5 8/5/5 1/16/5
f 86/181/6 71/145/6 67/146/6
f 85/177/3 80/178/3 86/182/3
f 88/183/1 90/184/1 87/185/1
f 92/186/2 94/187/2 91/188/2
f 90/189/4 91/190/4 87/191/4
f 89/192/5 92/193/5 90/184/5
f 88/194/6 93/195/6 89/196/6
f 87/185/3 94/187/3 88/197/3
f 96/198/1 98/199/1 95/200/1
f 100/201/2 102/202/2 99/203/2
f 98/204/4 99/205/4 95/206/4
f 97/207/5 100/208/5 98/199/5
f 96/209/6 101/210/6 97/211/6
f 95/200/3 102/202/3 96/212/3
f 104/213/1 106/214/1 103/215/1
f 108/216/2 110/217/2 107/218/2
f 106/219/4 107/220/4 103/221/4
f 105/222/5 108/223/5 106/214/5
f 104/224/6 109/225/6 105/226/6
f 103/215/3 110/217/3 104/227/3
f 2/1/1 3/12/1 4/2/1
f 6/4/2 7/228/2 8/5/2
f 3/7/3 6/229/3 5/8/3
f 2/10/4 7/228/4 6/11/4
f 1/13/5 8/30/5 7/14/5
f 4/2/6 5/230/6 8/5/6
f 9/17/1 10/231/1 6/18/1
f 12/20/2 13/232/2 14/21/2
f 6/4/3 12/233/3 11/23/3
f 10/24/4 13/232/4 12/25/4
f 9/26/5 14/234/5 13/27/5
f 5/19/6 11/235/6 14/21/6
f 8/30/1 7/14/1 16/31/1
f 18/33/2 19/236/2 20/34/2
f 16/36/3 18/237/3 17/37/3
f 7/39/4 19/236/4 18/40/4
f 8/41/5 20/238/5 19/42/5
f 15/32/6 17/239/6 20/34/6
f 22/45/1 23/240/1 24/46/1
f 26/48/2 27/241/2 28/49/2
f 24/51/3 26/242/3 25/52/3
f 23/54/4 27/241/4 26/55/4
f 22/56/5 28/243/5 27/57/5
f 21/47/6 25/244/6 28/49/6
f 30/60/1 31/245/1 32/61/1
f 34/63/2 35/246/2 36/64/2
f 32/66/3 34/247/3 33/67/3
f 31/69/4 35/246/4 34/70/4
f 30/71/5 36/248/5 35/72/5
f 29/62/6 33/249/6 36/64/6
f 38/75/1 39/250/1 40/76/1
f 42/78/2 43/251/2 44/79/2
f 40/81/3 42/252/3 41/82/3
f 39/84/4 43/251/4 42/85/4
f 38/86/5 44/118/5 43/87/5
f 37/77/6 41/253/6 44/79/6
f 45/90/1 46/254/1 42/91/1
f 48/93/2 49/255/2 50/94/2
f 42/78/3 48/256/3 47/96/3
f 46/97/4 49/255/4 48/98/4
f 45/99/5 50/257/5 49/100/5
f 41/92/6 47/258/6 50/94/6
f 52/103/1 53/259/1 54/104/1
f 56/106/2 57/260/2 58/107/2
f 54/109/3 56/261/3 55/110/3
f 53/112/4 57/260/4 56/113/4
f 52/114/5 58/262/5 57/115/5
f 51/105/6 55/263/6 58/107/6
f 44/118/1 43/87/1 60/119/1
f 62/121/2 63/264/2 64/122/2
f 60/124/3 62/265/3 61/125/3
f 43/127/4 63/264/4 62/128/4
f 44/129/5 64/266/5 63/130/5
f 59/120/6 61/267/6 64/122/6
f 66/133/1 67/268/1 68/134/1
f 70/136/2 71/269/2 72/137/2
f 68/139/3 70/270/3 69/140/3
f 67/142/4 71/269/4 70/143/4
f 66/144/5 72/161/5 71/145/5
f 65/135/6 69/271/6 72/137/6
f 73/148/1 74/272/1 70/149/1
f 76/151/2 77/273/2 78/152/2
f 70/136/3 76/274/3 75/154/3
f 74/155/4 77/273/4 76/156/4
f 73/157/5 78/275/5 77/158/5
f 69/150/6 75/276/6 78/152/6
f 72/161/1 71/145/1 80/162/1
f 82/164/2 83/277/2 84/165/2
f 80/167/3 82/278/3 81/168/3
f 71/170/4 83/277/4 82/171/4
f 72/172/5 84/279/5 83/173/5
f 79/163/6 81/280/6 84/165/6
f 86/176/1 67/268/1 1/16/1
f 8/41/2 71/269/2 80/178/2
f 1/13/4 8/30/4 15/179/4
f 67/142/5 71/269/5 8/5/5
f 86/181/6 80/281/6 71/145/6
f 85/177/3 15/282/3 80/178/3
f 88/183/1 89/283/1 90/184/1
f 92/186/2 93/284/2 94/187/2
f 90/189/4 92/285/4 91/190/4
f 89/192/5 93/284/5 92/193/5
f 88/194/6 94/286/6 93/195/6
f 87/185/3 91/287/3 94/187/3
f 96/198/1 97/288/1 98/199/1
f 100/201/2 101/289/2 102/202/2
f 98/204/4 100/290/4 99/205/4
f 97/207/5 101/289/5 100/208/5
f 96/209/6 102/291/6 101/210/6
f 95/200/3 99/292/3 102/202/3
f 104/213/1 105/293/1 106/214/1
f 108/216/2 109/294/2 110/217/2
f 106/219/4 108/295/4 107/220/4
f 105/222/5 109/294/5 108/223/5
f 104/224/6 110/296/6 109/225/6
f 103/215/3 107/297/3 110/217/3
