# Blender v3.1.2 OBJ File: 'modified5blend.blend'
# www.blender.org
o MH1_OBJ_08_MH1_OBJ_08.001
v 61.875652 0.007407 86.641159
v 90.556786 0.007407 86.641159
v 90.556763 0.007424 -18.545563
v 61.875618 0.007424 -18.545563
v 90.556786 0.007404 104.566872
v 61.875652 0.007404 104.566872
v 61.875652 0.007398 140.418304
v 90.556786 0.007398 140.418304
v 15.268757 0.007404 104.566872
v 15.268757 0.007398 140.418304
v -60.019249 0.007404 104.566872
v -60.019249 0.007398 140.418304
v 15.268757 0.007407 86.641159
v -60.019249 0.007407 86.641159
v 15.268757 0.007408 79.470871
v -60.019249 0.007408 79.470871
v -63.604389 0.007404 104.566872
v -63.604389 0.007398 140.418304
v -63.604389 0.007407 86.641159
v -97.961990 0.007404 104.566872
v -97.961990 0.007398 140.418304
v -97.961990 0.007407 86.641159
v -63.604389 0.007415 39.312103
v -97.962021 0.007415 39.312103
v 89.026711 1.799970 139.150757
v 89.026711 1.799979 86.641159
v 89.026711 0.007407 86.641159
v 89.026711 0.007399 139.150757
v -96.431969 0.007399 139.150757
v -96.431969 1.799970 139.150757
v -96.431969 1.799977 96.812119
v -96.431969 0.007406 96.812119
v 90.556763 0.007407 86.641159
v 90.556763 1.799979 86.641159
v 90.556786 1.799970 140.418304
v -97.961990 1.799970 140.418304
v -97.961990 1.799977 96.812119
v -97.961990 0.007406 96.812119
v -94.078140 0.007432 -63.359856
v 95.175072 0.007432 -63.359856
v 95.175072 0.007443 -135.062714
v -94.078140 0.007443 -135.062714
v 139.556747 0.007407 86.641129
v 139.556747 1.799979 86.641129
v 139.556778 0.007398 140.418274
v 139.556778 1.799970 140.418274
v 90.556633 0.007443 -135.358841
v 90.556633 1.800015 -135.358841
v 139.556625 0.007443 -135.358856
v 139.556625 1.800015 -135.358856
v -149.078140 0.007432 -63.359856
v -149.078140 0.007443 -135.062714
v -94.078140 0.007432 -63.359856
v -149.078140 0.007432 -63.359856
v -94.078140 0.007432 139.640137
v -149.078140 0.007432 139.640137
v -200.078140 0.007432 -63.359856
v -200.078140 0.007432 139.640137
v -200.078140 0.007432 -63.359856
v -200.078140 0.007443 -135.062714
v -94.078140 0.007443 -200.062714
v -149.078140 0.007443 -200.062714
v -200.078140 0.007443 -200.062714
v 137.921844 0.007443 -135.062714
v 137.921844 0.007443 -200.062714
v 199.921844 0.007443 -135.062714
v 199.921844 0.007443 -200.062714
v 137.921844 0.007443 -135.062714
v 199.921844 0.007443 -135.062714
v 137.921844 0.007443 198.937256
v 199.921844 0.007443 198.937256
v -149.078140 0.007432 198.640137
v -200.078140 0.007432 198.640137
v 139.921844 0.007432 139.640137
v 139.921844 0.007432 198.640137
v 61.875652 0.007404 85.566872
v 15.268757 0.007404 85.566872
vt 18.791700 -22.919800
vt 26.791700 6.419800
vt 18.791700 6.419800
vt 18.791700 -27.919800
vt 26.791700 -37.919800
vt 26.791700 -27.919800
vt 5.791700 -37.919800
vt 18.791700 -37.919800
vt 5.791700 -27.919800
vt -15.208300 -37.919800
vt 5.791700 -22.919800
vt -15.208300 -27.919800
vt -15.208300 -20.919800
vt 5.791700 -20.919800
vt -16.208300 -37.919800
vt -15.208300 -22.919800
vt -16.208300 -27.919800
vt -25.791700 -37.919800
vt -16.208300 -22.919800
vt -25.791700 -27.919800
vt -25.791700 -22.919800
vt -16.208300 -9.718400
vt -25.791700 -9.718400
vt 23.919800 0.750000
vt 38.566299 0.250000
vt 38.566299 0.750000
vt -25.364901 0.250000
vt 26.364901 0.750000
vt -25.364901 0.750000
vt -37.566200 0.750000
vt -25.756800 0.250000
vt -25.756800 0.750000
vt -25.791700 -22.919800
vt -25.791700 -22.919800
vt -25.791700 -22.919800
vt 26.791700 0.250000
vt -25.791700 0.750000
vt -25.791700 0.250000
vt 38.919800 0.750000
vt 26.756800 0.250000
vt 38.919800 0.250000
vt -25.791700 -22.919800
vt -25.364901 -37.566299
vt -25.364901 -22.919800
vt 26.791700 -22.919800
vt 26.364901 -37.566299
vt 26.791700 -37.919800
vt -25.791700 0.250000
vt -25.364901 0.750000
vt -25.791700 0.750000
vt -25.791700 -37.919800
vt -25.364901 -37.566200
vt 26.791700 -37.919800
vt -25.791700 -37.919800
vt 26.791700 -25.756800
vt 26.364901 -37.566200
vt 26.791700 0.750000
vt 26.364901 0.250000
vt 26.791700 0.250000
vt -25.791700 -25.756800
vt -25.364901 -25.756800
vt 25.791700 18.919800
vt -24.708300 38.919800
vt -24.708300 18.919800
vt -22.919800 0.750000
vt -37.919800 0.250000
vt -22.919800 0.250000
vt 26.791700 -37.919800
vt 26.791700 -22.919800
vt -25.791700 -37.919800
vt 26.791700 0.750000
vt 26.791700 0.750000
vt -25.791700 0.750000
vt -25.791700 0.250000
vt -25.791700 0.250000
vt 26.791700 -22.919800
vt -22.919800 0.750000
vt -24.708300 18.919800
vt 0.000000 0.000000
vt 0.000000 0.000000
vt 0.000000 0.000000
vt 0.000000 0.000000
vt 0.000000 0.000000
vt -24.708300 38.919800
vt -24.708300 18.919800
vt -24.708300 38.919800
vt -24.708300 38.919800
vt -24.708300 38.919800
vt -24.708300 38.919800
vt -24.708300 38.919800
vt -24.708300 38.919800
vt -24.708300 38.919800
vt -24.708300 38.919800
vt -24.708300 38.919800
vt -24.708300 38.919800
vt -24.708300 38.919800
vt 0.000000 0.000000
vt 0.000000 0.000000
vt 5.791700 -27.919800
vt 26.791700 -22.919800
vt 23.919800 0.250000
vt 26.364901 0.250000
vt -37.566200 0.250000
vt 26.756800 0.750000
vt 26.364901 -22.919800
vt -25.364901 0.250000
vt 26.364901 -25.756800
vt 26.364901 0.750000
vt 25.791700 38.919800
vt -37.919800 0.750000
vt 26.791700 0.250000
vt -25.791700 0.750000
vt 26.791700 -22.919800
vt -22.919800 0.250000
vt 0.000000 0.000000
vt -24.708300 38.919800
vt 0.000000 0.000000
vt 0.000000 0.000000
vt 18.791700 -27.919800
vn 0.0000 1.0000 0.0000
vn -1.0000 0.0000 0.0000
vn 0.0000 0.0000 -1.0000
vn 1.0000 0.0000 0.0000
vn -0.0000 -1.0000 -0.0000
vn 0.0000 0.0000 1.0000
s off
f 1/1/1 3/2/1 4/3/1
f 6/4/1 8/5/1 5/6/1
f 6/4/1 10/7/1 7/8/1
f 9/9/1 12/10/1 10/7/1
f 13/11/1 11/12/1 9/9/1
f 16/13/1 13/11/1 15/14/1
f 11/12/1 18/15/1 12/10/1
f 14/16/1 17/17/1 11/12/1
f 17/17/1 21/18/1 18/15/1
f 19/19/1 20/20/1 17/17/1
f 22/21/1 23/22/1 24/23/1
f 26/24/2 28/25/2 25/26/2
f 28/27/3 30/28/3 25/29/3
f 30/30/4 32/31/4 31/32/4
f 43/33/5 47/34/5 49/35/5
f 8/36/6 36/37/6 21/38/6
f 36/39/2 38/40/2 21/41/2
f 33/42/5 28/43/5 27/44/5
f 34/45/1 25/46/1 35/47/1
f 33/48/3 26/49/3 34/50/3
f 36/51/1 25/46/1 30/52/1
f 21/53/5 28/43/5 8/54/5
f 38/55/5 29/56/5 21/53/5
f 37/57/3 32/58/3 38/59/3
f 37/60/1 30/52/1 31/61/1
f 40/62/1 42/63/1 39/64/1
f 5/6/1 1/1/1 6/4/1
f 44/65/4 45/66/4 43/67/4
f 34/45/1 46/68/1 44/69/1
f 33/42/5 45/70/5 8/54/5
f 8/36/6 46/71/6 35/72/6
f 48/73/3 49/74/3 47/75/3
f 34/50/2 47/75/2 33/48/2
f 44/69/1 48/76/1 34/45/1
f 43/67/4 50/77/4 44/65/4
f 42/63/1 51/78/1 39/64/1
f 54/79/1 55/80/1 53/81/1
f 54/79/1 58/82/1 56/83/1
f 52/84/1 59/85/1 51/78/1
f 52/84/1 63/86/1 60/87/1
f 42/63/1 62/88/1 52/84/1
f 42/63/1 65/89/1 61/90/1
f 64/91/1 67/92/1 65/89/1
f 66/93/6 68/94/6 69/95/6
f 68/94/1 71/96/1 69/95/1
f 58/82/1 72/97/1 56/83/1
f 72/97/1 74/98/1 56/83/1
f 6/4/1 77/99/1 9/9/1
f 1/1/1 2/100/1 3/2/1
f 6/4/1 7/8/1 8/5/1
f 6/4/1 9/9/1 10/7/1
f 9/9/1 11/12/1 12/10/1
f 13/11/1 14/16/1 11/12/1
f 16/13/1 14/16/1 13/11/1
f 11/12/1 17/17/1 18/15/1
f 14/16/1 19/19/1 17/17/1
f 17/17/1 20/20/1 21/18/1
f 19/19/1 22/21/1 20/20/1
f 22/21/1 19/19/1 23/22/1
f 26/24/2 27/101/2 28/25/2
f 28/27/3 29/102/3 30/28/3
f 30/30/4 29/103/4 32/31/4
f 43/33/5 33/42/5 47/34/5
f 8/36/6 35/72/6 36/37/6
f 36/39/2 37/104/2 38/40/2
f 33/42/5 8/54/5 28/43/5
f 34/45/1 26/105/1 25/46/1
f 33/48/3 27/106/3 26/49/3
f 36/51/1 35/47/1 25/46/1
f 21/53/5 29/56/5 28/43/5
f 38/55/5 32/107/5 29/56/5
f 37/57/3 31/108/3 32/58/3
f 37/60/1 36/51/1 30/52/1
f 40/62/1 41/109/1 42/63/1
f 5/6/1 2/100/1 1/1/1
f 44/65/4 46/110/4 45/66/4
f 34/45/1 35/47/1 46/68/1
f 33/42/5 43/33/5 45/70/5
f 8/36/6 45/111/6 46/71/6
f 48/73/3 50/112/3 49/74/3
f 34/50/2 48/73/2 47/75/2
f 44/69/1 50/113/1 48/76/1
f 43/67/4 49/114/4 50/77/4
f 42/63/1 52/84/1 51/78/1
f 54/79/1 56/83/1 55/80/1
f 54/79/1 57/115/1 58/82/1
f 52/84/1 60/87/1 59/85/1
f 52/84/1 62/88/1 63/86/1
f 42/63/1 61/90/1 62/88/1
f 42/63/1 64/91/1 65/89/1
f 64/91/1 66/93/1 67/92/1
f 66/93/6 64/91/6 68/94/6
f 68/94/1 70/116/1 71/96/1
f 58/82/1 73/117/1 72/97/1
f 72/97/1 75/118/1 74/98/1
f 6/4/1 76/119/1 77/99/1
