# Blender v3.1.2 OBJ File: 'ground.blend'
# www.blender.org
o MH1_OBJ_04_MH1_OBJ_04.001
v 8.325642 18.943722 14.053330
v 8.325642 18.943722 7.846351
v 9.094827 18.943722 7.846351
v 9.094827 18.943722 14.053330
v 8.325642 34.327427 14.053333
v 9.094827 34.327427 14.053333
v 9.094827 34.327431 7.846354
v 8.325642 34.327431 7.846354
v 9.094827 29.712318 7.846353
v 8.325642 29.712318 7.846353
v 8.325642 29.712320 4.000426
v 9.094827 29.712320 4.000426
v 9.094827 34.327431 4.000427
v 8.325642 34.327431 4.000427
v -25.518517 18.943724 3.231239
v -26.287703 18.943724 3.231239
v -26.287703 34.327431 3.231241
v -25.518517 34.327431 3.231241
v -26.287703 18.943722 7.846351
v -26.287703 34.327431 7.846354
v -25.518517 18.943722 7.846351
v -25.518517 34.327431 7.846354
v 0.562702 29.712320 3.231240
v -0.206484 29.712320 3.231240
v -0.206484 29.712320 -2.153058
v 0.562702 29.712320 -2.153058
v 0.562702 34.327431 3.231241
v 0.562702 34.327431 -2.153057
v -0.206484 34.327431 -2.153057
v -0.206484 34.327431 3.231241
v -0.206484 18.943724 -2.153059
v -0.206484 18.943727 -25.697580
v 0.562702 18.943727 -25.697580
v 0.562702 18.943724 -2.153059
v -0.206484 34.327446 -2.153057
v 0.562702 34.327446 -2.153057
v 0.562702 34.327435 -25.697578
v -0.206484 34.327435 -25.697578
v 26.786091 18.943726 -11.852242
v 26.786091 18.943727 -25.697580
v 27.555275 18.943727 -25.697580
v 27.555275 18.943726 -11.852242
v 26.786091 34.327435 -11.852240
v 27.555290 34.327435 -11.852240
v 27.555290 34.327435 -25.697578
v 26.786091 34.327435 -25.697578
v 27.555275 29.712322 -8.006314
v 26.786091 29.712322 -8.006314
v 26.786091 29.712322 -11.852241
v 27.555275 29.712322 -11.852241
v 27.555290 34.327431 -8.006313
v 26.786091 34.327431 -8.006313
v -28.595270 18.943726 -8.006316
v -28.595270 18.943727 -25.697580
v -27.826084 18.943727 -25.697580
v -27.826084 18.943726 -8.006316
v -28.595270 34.327431 -8.006313
v -27.826084 34.327431 -8.006313
v -27.826084 34.327435 -25.697578
v -28.595270 34.327435 -25.697578
v -35.517937 18.943726 -8.006316
v -35.517937 18.943726 -8.775501
v -28.595270 18.943726 -8.775501
v -28.595270 34.327431 -8.775498
v -35.517937 34.327431 -8.775498
v -35.517937 34.327431 -8.006313
v -35.517937 29.712322 -8.775499
v -35.517937 29.712322 -8.006314
v -39.363865 29.712322 -8.006314
v -39.363865 29.712322 -8.775499
v -39.363865 34.327431 -8.775498
v -39.363865 34.327431 -8.006313
v 8.325654 3.560012 29.437037
v 8.325654 3.560015 9.384719
v 9.094839 3.560015 9.384719
v 9.094839 3.560012 29.437037
v 8.325642 18.174536 29.437038
v 9.094827 18.174536 29.437038
v 9.094827 18.174538 9.384722
v 8.325642 18.174538 9.384722
v 9.094827 14.328611 9.384721
v 8.325642 14.328611 9.384721
v 8.325642 14.328612 4.000423
v 9.094827 14.328612 4.000423
v 9.094827 18.174540 4.000424
v 8.325642 18.174540 4.000424
v -25.518517 3.560016 3.231236
v -26.287703 3.560016 3.231236
v -26.287703 18.174540 3.231239
v -25.518517 18.174540 3.231239
v -26.287703 3.560015 7.846349
v -26.287703 18.174538 7.846351
v -25.518517 3.560015 7.846349
v -25.518517 18.174538 7.846351
v -0.206484 14.328612 3.231238
v -0.206484 14.328612 4.000423
v -25.518517 14.328612 4.000423
v -25.518517 14.328612 3.231238
v -0.206484 18.174540 3.231239
v -25.518517 18.174540 4.000424
v -0.206484 18.174540 4.000424
v 0.562702 14.328612 3.231238
v -0.206484 14.328613 -2.153060
v 0.562702 14.328613 -2.153060
v 0.562702 18.174540 3.231239
v 0.562702 18.174540 -2.153059
v -0.206484 18.174540 -2.153059
v 26.786104 3.560016 4.000422
v -0.206484 3.560016 4.000422
v -0.206484 3.560016 3.231236
v 26.786104 3.560016 3.231236
v 26.786104 18.174540 4.000424
v 26.786104 18.174540 3.231239
v -0.206484 3.560017 -2.153061
v -0.206484 3.560021 -25.697584
v 0.562702 3.560021 -25.697584
v 0.562702 3.560017 -2.153061
v 0.562702 18.174543 -25.697582
v -0.206484 18.174543 -25.697582
v 26.786104 3.560019 -11.852245
v 26.786104 3.560021 -25.697584
v 27.555290 3.560021 -25.697584
v 27.555290 3.560019 -11.852245
v 26.786104 18.174541 -11.852242
v 27.555290 18.174541 -11.852242
v 27.555290 18.174543 -25.697582
v 26.786104 18.174543 -25.697582
v 27.555290 14.328614 -8.006317
v 26.786104 14.328614 -8.006317
v 26.786104 14.328614 -11.852243
v 27.555290 14.328614 -11.852243
v 27.555290 18.174541 -8.006316
v 26.786104 18.174541 -8.006316
v -28.595270 3.560018 -8.006319
v -28.595270 3.560021 -25.697584
v -27.826084 3.560021 -25.697584
v -27.826084 3.560018 -8.006319
v -28.595270 18.174541 -8.006316
v -27.826084 18.174541 -8.006316
v -27.826084 18.174543 -25.697582
v -28.595270 18.174543 -25.697582
v -35.517937 3.560018 -8.006319
v -35.517937 3.560018 -8.775504
v -28.595270 3.560018 -8.775504
v -28.595270 18.174541 -8.775501
v -35.517937 18.174541 -8.775501
v -35.517937 18.174541 -8.006316
v -35.517937 14.328614 -8.775502
v -35.517937 14.328614 -8.006317
v -39.363865 14.328614 -8.006317
v -39.363865 14.328614 -8.775502
v -39.363865 18.174541 -8.775501
v -39.363865 18.174541 -8.006316
v 26.786091 18.943724 4.000424
v -20.134218 18.943724 4.000424
v -20.134218 18.943724 3.231239
v 26.786091 18.943724 3.231239
v 26.786091 34.327431 4.000427
v 26.786091 34.327431 3.231241
v -20.134218 34.327431 3.231241
v -20.134218 34.327431 4.000427
v -20.134218 29.712320 3.231240
v -20.134218 29.712320 4.000426
v -25.518517 29.712320 4.000426
v -25.518517 29.712320 3.231240
v -25.518517 34.327431 4.000427
vt 1.000000 1.000000
vt 0.000000 0.000000
vt 1.000000 0.000000
vt 1.000000 0.000000
vt 0.000000 1.000000
vt 0.000000 0.000000
vt 1.000000 0.000000
vt 0.000000 1.000000
vt 0.000000 0.000000
vt 1.000000 0.000000
vt 0.000000 1.000000
vt 1.000000 0.000000
vt 0.000000 1.000000
vt 0.000000 0.000000
vt 0.000000 0.000000
vt 1.000000 1.000000
vt 0.000000 0.000000
vt 1.000000 0.000000
vt 1.000000 0.000000
vt 0.000000 0.000000
vt 1.000000 0.000000
vt 0.000000 0.000000
vt 1.000000 0.000000
vt 0.000000 1.000000
vt 1.000000 0.000000
vt 0.000000 1.000000
vt 0.000000 0.000000
vt 0.000000 0.000000
vt 1.000000 0.000000
vt 0.000000 1.000000
vt 0.000000 0.000000
vt 0.250000 1.000000
vt 0.000000 0.000000
vt 0.250000 0.000000
vt 0.000000 1.000000
vt 1.000000 0.750000
vt 1.000000 1.000000
vt 0.000000 1.000000
vt 1.000000 0.750000
vt 1.000000 1.000000
vt 0.750000 0.000000
vt 1.000000 0.000000
vt 0.750000 1.000000
vt 0.000000 0.750000
vt 1.000000 1.000000
vt 0.000000 0.000000
vt 1.000000 0.000000
vt 1.000000 0.000000
vt 0.000000 1.000000
vt 0.000000 0.000000
vt 1.000000 0.000000
vt 0.000000 1.000000
vt 0.000000 0.000000
vt 1.000000 0.000000
vt 0.000000 1.000000
vt 1.000000 0.000000
vt 0.000000 1.000000
vt 0.000000 0.000000
vt 0.000000 0.000000
vt 1.000000 1.000000
vt 0.000000 0.000000
vt 1.000000 0.000000
vt 1.000000 0.000000
vt 0.000000 1.000000
vt 0.000000 0.000000
vt 1.000000 0.000000
vt 0.000000 1.000000
vt 0.000000 0.000000
vt 1.000000 1.000000
vt 0.000000 1.000000
vt 1.000000 0.000000
vt 0.000000 1.000000
vt 0.000000 0.000000
vt 0.000000 0.000000
vt 1.000000 1.000000
vt 0.000000 0.000000
vt 1.000000 0.000000
vt 1.000000 0.000000
vt 0.000000 1.000000
vt 0.000000 0.000000
vt 1.000000 0.000000
vt 0.000000 1.000000
vt 0.000000 0.000000
vt 1.000000 0.000000
vt 0.000000 1.000000
vt 1.000000 0.000000
vt 0.000000 1.000000
vt 0.000000 0.000000
vt 0.000000 0.000000
vt 1.000000 1.000000
vt 0.000000 0.000000
vt 1.000000 0.000000
vt 0.000000 1.000000
vt 0.000000 0.000000
vt 1.000000 0.000000
vt 0.000000 1.000000
vt 0.000000 0.000000
vt 1.000000 1.000000
vt 1.000000 0.000000
vt 0.000000 0.000000
vt 0.000000 0.000000
vt 1.000000 1.000000
vt 0.000000 0.000000
vt 1.000000 0.000000
vt 1.000000 0.000000
vt 0.000000 1.000000
vt 0.000000 0.000000
vt 1.000000 0.000000
vt 0.000000 1.000000
vt 0.000000 0.000000
vt 1.000000 0.000000
vt 0.000000 1.000000
vt 1.000000 0.000000
vt 0.000000 1.000000
vt 0.000000 0.000000
vt 0.000000 0.000000
vt 1.000000 1.000000
vt 0.000000 0.000000
vt 1.000000 0.000000
vt 0.000000 1.000000
vt 1.000000 0.000000
vt 1.000000 0.000000
vt 0.000000 1.000000
vt 1.000000 0.000000
vt 0.000000 1.000000
vt 0.000000 0.000000
vt 0.000000 0.000000
vt 1.000000 1.000000
vt 0.000000 0.000000
vt 1.000000 0.000000
vt 1.000000 0.000000
vt 0.000000 0.000000
vt 1.000000 0.000000
vt 0.000000 0.000000
vt 1.000000 0.000000
vt 0.000000 1.000000
vt 1.000000 0.000000
vt 0.000000 1.000000
vt 0.000000 0.000000
vt 0.000000 0.000000
vt 1.000000 1.000000
vt 0.000000 0.000000
vt 1.000000 0.000000
vt 1.000000 0.000000
vt 0.000000 1.000000
vt 0.000000 0.000000
vt 0.000000 0.000000
vt 1.000000 1.000000
vt 0.000000 1.000000
vt 1.000000 0.000000
vt 0.000000 1.000000
vt 1.000000 0.000000
vt 0.000000 1.000000
vt 0.000000 0.000000
vt 0.000000 0.000000
vt 1.000000 1.000000
vt 0.000000 0.000000
vt 1.000000 0.000000
vt 1.000000 0.000000
vt 0.000000 0.000000
vt 1.000000 0.000000
vt 0.000000 0.000000
vt 1.000000 0.000000
vt 0.000000 1.000000
vt 1.000000 0.000000
vt 0.000000 1.000000
vt 0.000000 0.000000
vt 0.000000 0.000000
vt 1.000000 0.000000
vt 0.000000 1.000000
vt 0.000000 0.000000
vt 0.250000 1.000000
vt 0.000000 0.000000
vt 0.250000 0.000000
vt 0.000000 1.000000
vt 1.000000 0.750000
vt 1.000000 1.000000
vt 0.000000 1.000000
vt 1.000000 0.750000
vt 1.000000 1.000000
vt 0.750000 0.000000
vt 1.000000 0.000000
vt 0.750000 1.000000
vt 0.000000 0.750000
vt 1.000000 1.000000
vt 0.000000 0.000000
vt 1.000000 0.000000
vt 1.000000 0.000000
vt 0.000000 1.000000
vt 0.000000 0.000000
vt 1.000000 0.000000
vt 0.000000 1.000000
vt 0.000000 0.000000
vt 1.000000 0.000000
vt 1.000000 0.000000
vt 0.000000 1.000000
vt 0.000000 0.000000
vt 0.000000 0.000000
vt 1.000000 1.000000
vt 0.000000 0.000000
vt 1.000000 0.000000
vt 1.000000 0.000000
vt 0.000000 0.000000
vt 1.000000 0.000000
vt 0.000000 1.000000
vt 0.000000 0.000000
vt 1.000000 0.000000
vt 0.000000 1.000000
vt 0.000000 1.000000
vt 0.000000 0.000000
vt 1.000000 1.000000
vt 0.000000 0.000000
vt 1.000000 0.000000
vt 1.000000 0.000000
vt 0.000000 0.000000
vt 1.000000 0.000000
vt 0.000000 1.000000
vt 0.000000 0.000000
vt 1.000000 0.000000
vt 0.000000 1.000000
vt 1.000000 0.000000
vt 0.000000 0.000000
vt 0.000000 0.000000
vt 1.000000 1.000000
vt 0.000000 0.000000
vt 1.000000 0.000000
vt 0.000000 1.000000
vt 0.000000 0.000000
vt 1.000000 0.000000
vt 0.000000 0.000000
vt 1.000000 0.000000
vt 1.000000 0.000000
vt 0.000000 1.000000
vt 0.000000 0.000000
vt 0.000000 0.000000
vt 1.000000 1.000000
vt 0.000000 0.000000
vt 1.000000 0.000000
vt 1.000000 0.000000
vt 0.000000 1.000000
vt 0.000000 0.000000
vt 1.000000 0.000000
vt 0.000000 1.000000
vt 0.000000 0.000000
vt 1.000000 0.000000
vt 0.000000 1.000000
vt 1.000000 0.000000
vt 0.000000 1.000000
vt 0.000000 0.000000
vt 0.000000 0.000000
vt 1.000000 1.000000
vt 0.000000 0.000000
vt 1.000000 0.000000
vt 0.000000 1.000000
vt 0.000000 0.000000
vt 1.000000 0.000000
vt 0.000000 1.000000
vt 0.000000 0.000000
vt 1.000000 0.000000
vt 1.000000 0.000000
vt 0.000000 0.000000
vt 0.000000 0.000000
vt 1.000000 1.000000
vt 0.000000 0.000000
vt 1.000000 0.000000
vt 1.000000 0.000000
vt 0.000000 1.000000
vt 0.000000 0.000000
vt 1.000000 0.000000
vt 0.000000 1.000000
vt 0.000000 0.000000
vt 1.000000 0.000000
vt 0.000000 1.000000
vt 1.000000 0.000000
vt 0.000000 1.000000
vt 0.000000 0.000000
vt 0.000000 0.000000
vt 1.000000 1.000000
vt 0.000000 0.000000
vt 1.000000 0.000000
vt 0.000000 1.000000
vt 1.000000 0.000000
vt 1.000000 0.000000
vt 0.000000 1.000000
vt 1.000000 0.000000
vt 0.000000 1.000000
vt 0.000000 0.000000
vt 0.000000 0.000000
vt 1.000000 1.000000
vt 0.000000 0.000000
vt 1.000000 0.000000
vt 1.000000 0.000000
vt 0.000000 0.000000
vt 1.000000 0.000000
vt 0.000000 0.000000
vt 1.000000 0.000000
vt 0.000000 1.000000
vt 1.000000 0.000000
vt 0.000000 1.000000
vt 0.000000 0.000000
vt 0.000000 0.000000
vt 1.000000 1.000000
vt 0.000000 0.000000
vt 1.000000 0.000000
vt 1.000000 0.000000
vt 0.000000 1.000000
vt 0.000000 0.000000
vt 1.000000 0.000000
vt 0.000000 1.000000
vt 0.000000 0.000000
vt 1.000000 0.000000
vt 0.000000 1.000000
vt 1.000000 0.000000
vt 0.000000 1.000000
vt 0.000000 0.000000
vt 0.000000 0.000000
vt 1.000000 1.000000
vt 0.000000 0.000000
vt 1.000000 0.000000
vt 1.000000 0.000000
vt 0.000000 0.000000
vt 1.000000 0.000000
vt 0.000000 0.000000
vt 1.000000 0.000000
vt 1.000000 0.000000
vt 0.000000 1.000000
vt 0.000000 0.000000
vt 0.000000 0.000000
vt 0.000000 1.000000
vt 1.000000 1.000000
vt 1.000000 1.000000
vt 1.000000 1.000000
vt 1.000000 1.000000
vt 0.000000 1.000000
vt 1.000000 1.000000
vt 1.000000 1.000000
vt 1.000000 1.000000
vt 0.000000 0.750000
vt 0.000000 1.000000
vt 1.000000 1.000000
vt 1.000000 1.000000
vt 1.000000 1.000000
vt 1.000000 1.000000
vt 0.000000 1.000000
vt 1.000000 1.000000
vt 1.000000 0.000000
vt 1.000000 1.000000
vt 1.000000 1.000000
vt 0.000000 1.000000
vt 1.000000 1.000000
vt 1.000000 1.000000
vt 1.000000 1.000000
vt 0.000000 1.000000
vt 1.000000 0.000000
vt 1.000000 1.000000
vt 1.000000 1.000000
vt 0.000000 1.000000
vt 1.000000 1.000000
vt 1.000000 1.000000
vt 1.000000 1.000000
vt 1.000000 1.000000
vt 0.000000 1.000000
vt 1.000000 1.000000
vt 1.000000 1.000000
vt 1.000000 1.000000
vt 0.000000 1.000000
vt 1.000000 1.000000
vt 1.000000 1.000000
vt 0.000000 1.000000
vt 1.000000 1.000000
vt 1.000000 0.000000
vt 1.000000 1.000000
vt 1.000000 1.000000
vt 0.000000 1.000000
vt 1.000000 1.000000
vt 1.000000 1.000000
vt 1.000000 1.000000
vt 0.000000 0.750000
vt 0.000000 1.000000
vt 1.000000 1.000000
vt 1.000000 1.000000
vt 1.000000 1.000000
vt 0.000000 1.000000
vt 1.000000 1.000000
vt 1.000000 1.000000
vt 1.000000 1.000000
vt 0.000000 1.000000
vt 1.000000 1.000000
vt 1.000000 1.000000
vt 0.000000 1.000000
vt 1.000000 1.000000
vt 1.000000 1.000000
vt 0.000000 1.000000
vt 1.000000 1.000000
vt 1.000000 1.000000
vt 1.000000 1.000000
vt 1.000000 1.000000
vt 0.000000 1.000000
vt 1.000000 1.000000
vt 1.000000 1.000000
vt 0.000000 1.000000
vt 1.000000 1.000000
vt 1.000000 1.000000
vt 1.000000 1.000000
vt 1.000000 1.000000
vt 0.000000 1.000000
vt 1.000000 1.000000
vt 1.000000 1.000000
vt 1.000000 1.000000
vt 0.000000 1.000000
vt 1.000000 1.000000
vt 1.000000 1.000000
vt 0.000000 1.000000
vt 1.000000 1.000000
vt 1.000000 1.000000
vt 1.000000 1.000000
vt 1.000000 1.000000
vt 0.000000 1.000000
vt 1.000000 1.000000
vn 0.0000 -1.0000 0.0000
vn 0.0000 1.0000 0.0000
vn 0.0000 -0.0000 1.0000
vn 1.0000 -0.0000 0.0000
vn 0.0000 0.0000 -1.0000
vn -1.0000 0.0000 0.0000
s off
f 2/1/1 4/2/1 1/3/1
f 6/4/2 8/5/2 5/6/2
f 4/7/3 5/8/3 1/9/3
f 3/10/4 6/11/4 4/2/4
f 2/12/5 7/13/5 3/14/5
f 1/3/6 8/5/6 2/15/6
f 10/16/1 12/17/1 9/18/1
f 13/19/2 8/5/2 7/20/2
f 12/21/4 7/13/4 9/22/4
f 11/23/5 13/24/5 12/17/5
f 10/25/6 14/26/6 11/27/6
f 9/18/3 8/5/3 10/28/3
f 16/29/5 18/30/5 15/31/5
f 20/32/6 16/33/6 19/34/6
f 15/35/1 19/36/1 16/37/1
f 17/38/2 22/39/2 18/40/2
f 18/40/4 21/41/4 15/42/4
f 22/43/3 19/34/3 21/44/3
f 24/45/1 26/46/1 23/47/1
f 28/48/2 30/49/2 27/50/2
f 26/51/4 27/52/4 23/53/4
f 25/54/5 28/55/5 26/46/5
f 24/56/6 29/57/6 25/58/6
f 23/47/3 30/49/3 24/59/3
f 32/60/1 34/61/1 31/62/1
f 36/63/2 38/64/2 35/65/2
f 34/66/3 35/67/3 31/68/3
f 34/61/4 37/69/4 36/70/4
f 32/71/5 37/72/5 33/73/5
f 31/62/6 38/64/6 32/74/6
f 40/75/1 42/76/1 39/77/1
f 44/78/2 46/79/2 43/80/2
f 42/81/3 43/82/3 39/83/3
f 41/84/4 44/85/4 42/76/4
f 40/86/5 45/87/5 41/88/5
f 39/77/6 46/79/6 40/89/6
f 48/90/1 50/91/1 47/92/1
f 44/78/2 52/93/2 51/94/2
f 50/95/4 51/96/4 47/97/4
f 50/91/5 43/98/5 44/85/5
f 48/99/6 43/82/6 49/100/6
f 47/92/3 52/93/3 48/101/3
f 54/102/1 56/103/1 53/104/1
f 58/105/2 60/106/2 57/107/2
f 56/108/3 57/109/3 53/110/3
f 55/111/4 58/112/4 56/103/4
f 54/113/5 59/114/5 55/115/5
f 53/104/6 60/106/6 54/116/6
f 61/117/1 63/118/1 53/104/1
f 64/119/2 66/120/2 57/107/2
f 63/121/4 57/109/4 53/110/4
f 62/122/5 64/123/5 63/118/5
f 61/124/6 65/125/6 62/126/6
f 53/104/3 66/120/3 61/127/3
f 68/128/1 70/129/1 67/130/1
f 71/131/2 66/120/2 65/132/2
f 70/133/5 65/125/5 67/134/5
f 69/135/6 71/136/6 70/129/6
f 68/137/3 72/138/3 69/139/3
f 67/130/4 66/120/4 68/140/4
f 74/141/1 76/142/1 73/143/1
f 78/144/2 80/145/2 77/146/2
f 73/147/3 78/148/3 77/149/3
f 75/150/4 78/151/4 76/142/4
f 74/152/5 79/153/5 75/154/5
f 73/143/6 80/145/6 74/155/6
f 82/156/1 84/157/1 81/158/1
f 85/159/2 80/145/2 79/160/2
f 84/161/4 79/153/4 81/162/4
f 83/163/5 85/164/5 84/157/5
f 82/165/6 86/166/6 83/167/6
f 81/158/3 80/145/3 82/168/3
f 88/169/5 90/170/5 87/171/5
f 92/172/6 88/173/6 91/174/6
f 87/175/1 91/176/1 88/177/1
f 89/178/2 94/179/2 90/180/2
f 90/180/4 93/181/4 87/182/4
f 94/183/3 91/174/3 93/184/3
f 96/185/1 98/186/1 95/187/1
f 90/188/2 101/189/2 99/190/2
f 98/191/5 99/192/5 95/193/5
f 97/194/6 90/170/6 98/186/6
f 96/195/3 100/196/3 97/197/3
f 95/187/4 101/189/4 96/198/4
f 95/199/1 104/200/1 102/201/1
f 106/202/2 99/192/2 105/203/2
f 104/204/4 105/205/4 102/206/4
f 103/207/5 106/208/5 104/200/5
f 95/187/6 107/209/6 103/210/6
f 102/201/3 99/192/3 95/193/3
f 109/211/1 111/212/1 108/213/1
f 113/214/2 101/189/2 112/215/2
f 111/216/4 112/217/4 108/218/4
f 110/219/5 113/220/5 111/212/5
f 109/221/6 99/192/6 110/222/6
f 108/213/3 101/189/3 109/223/3
f 115/224/1 117/225/1 114/226/1
f 106/202/2 119/227/2 107/228/2
f 117/229/3 107/209/3 114/230/3
f 116/231/4 106/208/4 117/225/4
f 115/232/5 118/233/5 116/234/5
f 114/226/6 119/227/6 115/235/6
f 121/236/1 123/237/1 120/238/1
f 125/239/2 127/240/2 124/241/2
f 123/242/3 124/243/3 120/244/3
f 122/245/4 125/246/4 123/237/4
f 121/247/5 126/248/5 122/249/5
f 120/238/6 127/240/6 121/250/6
f 129/251/1 131/252/1 128/253/1
f 125/239/2 133/254/2 132/255/2
f 131/256/4 132/257/4 128/258/4
f 130/259/5 125/246/5 131/252/5
f 129/260/6 124/243/6 130/261/6
f 128/253/3 133/254/3 129/262/3
f 135/263/1 137/264/1 134/265/1
f 139/266/2 141/267/2 138/268/2
f 137/269/3 138/270/3 134/271/3
f 136/272/4 139/273/4 137/264/4
f 135/274/5 140/275/5 136/276/5
f 134/265/6 141/267/6 135/277/6
f 142/278/1 144/279/1 134/265/1
f 145/280/2 147/281/2 138/268/2
f 144/282/4 138/270/4 134/271/4
f 143/283/5 145/284/5 144/279/5
f 142/285/6 146/286/6 143/287/6
f 134/265/3 147/281/3 142/288/3
f 149/289/1 151/290/1 148/291/1
f 152/292/2 147/281/2 146/293/2
f 151/294/5 146/286/5 148/295/5
f 150/296/6 152/297/6 151/290/6
f 149/298/3 153/299/3 150/300/3
f 148/291/4 147/281/4 149/301/4
f 155/302/1 157/303/1 154/304/1
f 159/305/2 161/306/2 158/307/2
f 157/308/4 158/309/4 154/310/4
f 156/311/5 159/312/5 157/303/5
f 155/313/6 160/314/6 156/315/6
f 154/304/3 161/306/3 155/316/3
f 163/317/1 165/318/1 162/319/1
f 18/320/2 161/306/2 160/321/2
f 165/322/5 160/314/5 162/323/5
f 164/324/6 18/30/6 165/318/6
f 163/325/3 166/326/3 164/327/3
f 162/319/4 161/306/4 163/328/4
f 2/1/1 3/329/1 4/2/1
f 6/4/2 7/330/2 8/5/2
f 4/7/3 6/331/3 5/8/3
f 3/10/4 7/330/4 6/11/4
f 2/12/5 8/332/5 7/13/5
f 1/3/6 5/333/6 8/5/6
f 10/16/1 11/334/1 12/17/1
f 13/19/2 14/335/2 8/5/2
f 12/21/4 13/336/4 7/13/4
f 11/23/5 14/335/5 13/24/5
f 10/25/6 8/332/6 14/26/6
f 9/18/3 7/330/3 8/5/3
f 16/29/5 17/337/5 18/30/5
f 20/32/6 17/38/6 16/33/6
f 15/35/1 21/44/1 19/36/1
f 17/38/2 20/338/2 22/39/2
f 18/40/4 22/43/4 21/41/4
f 22/43/3 20/338/3 19/34/3
f 24/45/1 25/339/1 26/46/1
f 28/48/2 29/340/2 30/49/2
f 26/51/4 28/341/4 27/52/4
f 25/54/5 29/340/5 28/55/5
f 24/56/6 30/342/6 29/57/6
f 23/47/3 27/343/3 30/49/3
f 32/60/1 33/344/1 34/61/1
f 36/63/2 37/69/2 38/64/2
f 34/66/3 36/345/3 35/67/3
f 34/61/4 33/346/4 37/69/4
f 32/71/5 38/347/5 37/72/5
f 31/62/6 35/348/6 38/64/6
f 40/75/1 41/349/1 42/76/1
f 44/78/2 45/350/2 46/79/2
f 42/81/3 44/351/3 43/82/3
f 41/84/4 45/350/4 44/85/4
f 40/86/5 46/352/5 45/87/5
f 39/77/6 43/98/6 46/79/6
f 48/90/1 49/353/1 50/91/1
f 44/78/2 43/98/2 52/93/2
f 50/95/4 44/351/4 51/96/4
f 50/91/5 49/354/5 43/98/5
f 48/99/6 52/355/6 43/82/6
f 47/92/3 51/356/3 52/93/3
f 54/102/1 55/357/1 56/103/1
f 58/105/2 59/358/2 60/106/2
f 56/108/3 58/359/3 57/109/3
f 55/111/4 59/358/4 58/112/4
f 54/113/5 60/360/5 59/114/5
f 53/104/6 57/361/6 60/106/6
f 61/117/1 62/362/1 63/118/1
f 64/119/2 65/363/2 66/120/2
f 63/121/4 64/364/4 57/109/4
f 62/122/5 65/363/5 64/123/5
f 61/124/6 66/365/6 65/125/6
f 53/104/3 57/361/3 66/120/3
f 68/128/1 69/366/1 70/129/1
f 71/131/2 72/367/2 66/120/2
f 70/133/5 71/368/5 65/125/5
f 69/135/6 72/367/6 71/136/6
f 68/137/3 66/365/3 72/138/3
f 67/130/4 65/363/4 66/120/4
f 74/141/1 75/369/1 76/142/1
f 78/144/2 79/370/2 80/145/2
f 73/147/3 76/371/3 78/148/3
f 75/150/4 79/370/4 78/151/4
f 74/152/5 80/372/5 79/153/5
f 73/143/6 77/373/6 80/145/6
f 82/156/1 83/374/1 84/157/1
f 85/159/2 86/375/2 80/145/2
f 84/161/4 85/376/4 79/153/4
f 83/163/5 86/375/5 85/164/5
f 82/165/6 80/372/6 86/166/6
f 81/158/3 79/370/3 80/145/3
f 88/169/5 89/377/5 90/170/5
f 92/172/6 89/178/6 88/173/6
f 87/175/1 93/184/1 91/176/1
f 89/178/2 92/378/2 94/179/2
f 90/180/4 94/183/4 93/181/4
f 94/183/3 92/378/3 91/174/3
f 96/185/1 97/379/1 98/186/1
f 90/188/2 100/380/2 101/189/2
f 98/191/5 90/180/5 99/192/5
f 97/194/6 100/380/6 90/170/6
f 96/195/3 101/381/3 100/196/3
f 95/187/4 99/382/4 101/189/4
f 95/199/1 103/383/1 104/200/1
f 106/202/2 107/384/2 99/192/2
f 104/204/4 106/385/4 105/205/4
f 103/207/5 107/384/5 106/208/5
f 95/187/6 99/382/6 107/209/6
f 102/201/3 105/386/3 99/192/3
f 109/211/1 110/387/1 111/212/1
f 113/214/2 99/382/2 101/189/2
f 111/216/4 113/388/4 112/217/4
f 110/219/5 99/382/5 113/220/5
f 109/221/6 101/381/6 99/192/6
f 108/213/3 112/389/3 101/189/3
f 115/224/1 116/390/1 117/225/1
f 106/202/2 118/391/2 119/227/2
f 117/229/3 106/385/3 107/209/3
f 116/231/4 118/391/4 106/208/4
f 115/232/5 119/392/5 118/233/5
f 114/226/6 107/384/6 119/227/6
f 121/236/1 122/393/1 123/237/1
f 125/239/2 126/394/2 127/240/2
f 123/242/3 125/395/3 124/243/3
f 122/245/4 126/394/4 125/246/4
f 121/247/5 127/396/5 126/248/5
f 120/238/6 124/397/6 127/240/6
f 129/251/1 130/398/1 131/252/1
f 125/239/2 124/397/2 133/254/2
f 131/256/4 125/395/4 132/257/4
f 130/259/5 124/397/5 125/246/5
f 129/260/6 133/399/6 124/243/6
f 128/253/3 132/400/3 133/254/3
f 135/263/1 136/401/1 137/264/1
f 139/266/2 140/402/2 141/267/2
f 137/269/3 139/403/3 138/270/3
f 136/272/4 140/402/4 139/273/4
f 135/274/5 141/404/5 140/275/5
f 134/265/6 138/405/6 141/267/6
f 142/278/1 143/406/1 144/279/1
f 145/280/2 146/407/2 147/281/2
f 144/282/4 145/408/4 138/270/4
f 143/283/5 146/407/5 145/284/5
f 142/285/6 147/409/6 146/286/6
f 134/265/3 138/405/3 147/281/3
f 149/289/1 150/410/1 151/290/1
f 152/292/2 153/411/2 147/281/2
f 151/294/5 152/412/5 146/286/5
f 150/296/6 153/411/6 152/297/6
f 149/298/3 147/409/3 153/299/3
f 148/291/4 146/407/4 147/281/4
f 155/302/1 156/413/1 157/303/1
f 159/305/2 160/414/2 161/306/2
f 157/308/4 159/415/4 158/309/4
f 156/311/5 160/414/5 159/312/5
f 155/313/6 161/416/6 160/314/6
f 154/304/3 158/417/3 161/306/3
f 163/317/1 164/418/1 165/318/1
f 18/320/2 166/419/2 161/306/2
f 165/322/5 18/40/5 160/314/5
f 164/324/6 166/419/6 18/30/6
f 163/325/3 161/416/3 166/326/3
f 162/319/4 160/414/4 161/306/4
